<svg width="28" height="20" viewBox="0 0 28 20" fill="none" xmlns="http://www.w3.org/2000/svg">
<path d="M2 19.2045H26C26.825 19.2045 27.5 18.5142 27.5 17.6704C27.5 16.8267 26.825 16.1363 26 16.1363H2C1.175 16.1363 0.5 16.8267 0.5 17.6704C0.5 18.5142 1.175 19.2045 2 19.2045ZM2 11.534H26C26.825 11.534 27.5 10.8437 27.5 9.99996C27.5 9.15621 26.825 8.46586 26 8.46586H2C1.175 8.46586 0.5 9.15621 0.5 9.99996C0.5 10.8437 1.175 11.534 2 11.534ZM0.5 2.3295C0.5 3.17325 1.175 3.86359 2 3.86359H26C26.825 3.86359 27.5 3.17325 27.5 2.3295C27.5 1.48575 26.825 0.79541 26 0.79541H2C1.175 0.79541 0.5 1.48575 0.5 2.3295Z" fill="white"/>
</svg>
